Tilt-Warp-Model-B.ufo
<glyph name="quotedbl" format="2">
  <advance width="518"/>
  <unicode hex="0022"/>
  <outline>
    <contour>
      <point x="78.0" y="398.0" type="line"/>
      <point x="64.0" y="680.0" type="line"/>
      <point x="233.0" y="680.0" type="line"/>
      <point x="219.0" y="398.0" type="line"/>
    </contour>
    <contour>
      <point x="299.0" y="398.0" type="line"/>
      <point x="285.0" y="680.0" type="line"/>
      <point x="454.0" y="680.0" type="line"/>
      <point x="440.0" y="398.0" type="line"/>
    </contour>
  </outline>
</glyph>
<glyph name="dollar" format="2">
  <advance width="500"/>
  <unicode hex="0024"/>
  <outline>
    <contour>
      <point x="184" y="550" type="line"/>
      <point x="184.0" y="730.0" type="line"/>
      <point x="329.0" y="730.0" type="line"/>
      <point x="329" y="550" type="line"/>
    </contour>
    <contour>
      <point x="184" y="-50" type="line"/>
      <point x="184" y="100" type="line"/>
      <point x="329" y="100" type="line"/>
      <point x="329" y="-50" type="line"/>
    </contour>
    <contour>
      <point x="478" y="226" type="curve" smooth="yes"/>
      <point x="478" y="55"/>
      <point x="280" y="32"/>
      <point x="49" y="81" type="curve"/>
      <point x="49" y="242" type="line"/>
      <point x="168" y="190"/>
      <point x="298" y="185"/>
      <point x="298" y="231" type="curve" smooth="yes"/>
      <point x="298" y="290"/>
      <point x="39.0" y="257"/>
      <point x="39.0" y="449" type="curve" smooth="yes"/>
      <point x="39.0" y="604"/>
      <point x="224" y="650"/>
      <point x="447" y="597" type="curve"/>
      <point x="447" y="436" type="line"/>
      <point x="326" y="492"/>
      <point x="222" y="487"/>
      <point x="222" y="447" type="curve" smooth="yes"/>
      <point x="222" y="390"/>
      <point x="478" y="424"/>
    </contour>
  </outline>
</glyph>
<glyph name="comma" format="2">
  <advance width="297"/>
  <unicode hex="002C"/>
  <outline>
    <contour>
      <point x="42.0" y="-101.0" type="line"/>
      <point x="86.0" y="-5.0"/>
      <point x="89.0" y="91.0"/>
      <point x="61.0" y="181.0" type="curve"/>
      <point x="230" y="181.0" type="line"/>
      <point x="253" y="91.0"/>
      <point x="245" y="-5.0"/>
      <point x="196.0" y="-101.0" type="curve"/>
    </contour>
  </outline>
</glyph>
<glyph name="hyphen" format="2">
  <advance width="340"/>
  <unicode hex="002D"/>
  <outline>
    <contour>
      <point x="35" y="231" type="line"/>
      <point x="305" y="231" type="line"/>
      <point x="305" y="386" type="line"/>
      <point x="35" y="386" type="line"/>
    </contour>
  </outline>
</glyph>
<glyph name="period" format="2">
  <advance width="291"/>
  <unicode hex="002E"/>
  <outline>
    <contour>
      <point x="146" y="-16" type="curve" smooth="yes"/>
      <point x="203" y="-16"/>
      <point x="251" y="31"/>
      <point x="251" y="88" type="curve" smooth="yes"/>
      <point x="251" y="144"/>
      <point x="203" y="191"/>
      <point x="146" y="191" type="curve" smooth="yes"/>
      <point x="87" y="191"/>
      <point x="40" y="144"/>
      <point x="40" y="88" type="curve" smooth="yes"/>
      <point x="40" y="31"/>
      <point x="87" y="-16"/>
    </contour>
  </outline>
</glyph>
<glyph name="two" format="2">
  <advance width="530"/>
  <unicode hex="0032"/>
  <outline>
    <contour>
      <point x="47" y="0" type="line"/>
      <point x="488" y="0" type="line"/>
      <point x="488" y="159" type="line"/>
      <point x="47" y="159" type="line"/>
    </contour>
    <contour>
      <point x="239" y="122" type="line"/>
      <point x="362" y="245" type="line" smooth="yes"/>
      <point x="451" y="334"/>
      <point x="493" y="399"/>
      <point x="493" y="482" type="curve" smooth="yes"/>
      <point x="493" y="646"/>
      <point x="332" y="736"/>
      <point x="56" y="668" type="curve"/>
      <point x="56" y="501" type="line"/>
      <point x="232" y="538"/>
      <point x="316" y="521"/>
      <point x="316.0" y="465" type="curve" smooth="yes"/>
      <point x="316" y="437"/>
      <point x="295" y="403"/>
      <point x="204" y="314" type="curve" smooth="yes"/>
      <point x="47" y="159" type="line"/>
    </contour>
  </outline>
</glyph>
<glyph name="three" format="2">
  <advance width="518"/>
  <unicode hex="0033"/>
  <outline>
    <contour>
      <point x="54" y="521" type="line"/>
      <point x="469" y="521" type="line"/>
      <point x="469" y="680" type="line"/>
      <point x="54" y="680" type="line"/>
    </contour>
    <contour>
      <point x="207" y="304" type="line"/>
      <point x="469" y="521" type="line"/>
      <point x="454" y="678" type="line"/>
      <point x="90" y="387" type="line"/>
    </contour>
    <contour>
      <point x="90" y="387" type="curve"/>
      <point x="90" y="271" type="line"/>
      <point x="228" y="283"/>
      <point x="332" y="266"/>
      <point x="332" y="205" type="curve" smooth="yes"/>
      <point x="332" y="140"/>
      <point x="216" y="136"/>
      <point x="50" y="188" type="curve"/>
      <point x="50" y="21" type="line"/>
      <point x="279" y="-48"/>
      <point x="504" y="11"/>
      <point x="504" y="211" type="curve" smooth="yes"/>
      <point x="504" y="376"/>
      <point x="346" y="453"/>
    </contour>
  </outline>
</glyph>
<glyph name="five" format="2">
  <advance width="519"/>
  <unicode hex="0035"/>
  <outline>
    <contour>
      <point x="149" y="521" type="line"/>
      <point x="149" y="680" type="line"/>
      <point x="460" y="680" type="line"/>
      <point x="460" y="521" type="line"/>
    </contour>
    <contour>
      <point x="85" y="416" type="line"/>
      <point x="341" y="482"/>
      <point x="499" y="406"/>
      <point x="499" y="226" type="curve" smooth="yes"/>
      <point x="499" y="11"/>
      <point x="274" y="-48"/>
      <point x="45" y="21" type="curve"/>
      <point x="45" y="188" type="line"/>
      <point x="211" y="136"/>
      <point x="327" y="137"/>
      <point x="327" y="221" type="curve" smooth="yes"/>
      <point x="327" y="294"/>
      <point x="207" y="310"/>
      <point x="53" y="285" type="curve"/>
      <point x="89" y="680" type="line"/>
      <point x="257" y="680" type="line"/>
      <point x="221" y="380" type="line"/>
    </contour>
  </outline>
</glyph>
<glyph name="six" format="2">
  <advance width="567"/>
  <unicode hex="0036"/>
  <outline>
    <contour>
      <point x="498" y="492" type="curve"/>
      <point x="498" y="665" type="line"/>
      <point x="231" y="740"/>
      <point x="25" y="612"/>
      <point x="25" y="320" type="curve" smooth="yes"/>
      <point x="25" y="92"/>
      <point x="139" y="-13"/>
      <point x="294" y="-13" type="curve" smooth="yes"/>
      <point x="448" y="-13"/>
      <point x="549" y="93"/>
      <point x="549" y="232" type="curve" smooth="yes"/>
      <point x="549" y="449"/>
      <point x="322" y="502"/>
      <point x="203" y="409" type="curve"/>
      <point x="213" y="527"/>
      <point x="359" y="555"/>
    </contour>
    <contour>
      <point x="293" y="146" type="curve" smooth="yes"/>
      <point x="245" y="146"/>
      <point x="212" y="182"/>
      <point x="212" y="234" type="curve" smooth="yes"/>
      <point x="212" y="283"/>
      <point x="245" y="316"/>
      <point x="293" y="316" type="curve" smooth="yes"/>
      <point x="342" y="316"/>
      <point x="376" y="282"/>
      <point x="376" y="231" type="curve" smooth="yes"/>
      <point x="376" y="181"/>
      <point x="342" y="146"/>
    </contour>
  </outline>
</glyph>
<glyph name="eight" format="2">
  <advance width="560"/>
  <unicode hex="0038"/>
  <outline>
    <contour>
      <point x="281" y="138" type="curve" smooth="yes"/>
      <point x="326.86746987951807" y="138.0"/>
      <point x="362.0" y="169.0"/>
      <point x="362" y="212" type="curve" smooth="yes"/>
      <point x="362.0" y="257.0"/>
      <point x="326.86746987951807" y="287.0"/>
      <point x="281" y="287" type="curve" smooth="yes"/>
      <point x="234.12941176470588" y="287.0"/>
      <point x="198.0" y="257.0"/>
      <point x="198" y="212" type="curve" smooth="yes"/>
      <point x="198.0" y="169.0"/>
      <point x="234.12941176470588" y="138.0"/>
    </contour>
    <contour>
      <point x="281" y="-15" type="curve" smooth="yes"/>
      <point x="134.2806324110672" y="-15.0"/>
      <point x="25.0" y="70.0"/>
      <point x="25" y="198" type="curve" smooth="yes"/>
      <point x="25.0" y="330.0"/>
      <point x="135.15139442231074" y="395.0"/>
      <point x="281" y="395" type="curve" smooth="yes"/>
      <point x="425.85140562248995" y="395.0"/>
      <point x="535.0" y="330.0"/>
      <point x="535" y="198" type="curve" smooth="yes"/>
      <point x="535.0" y="70.0"/>
      <point x="425.70916334661354" y="-15.0"/>
    </contour>
    <contour>
      <point x="281" y="417" type="curve" smooth="yes"/>
      <point x="322.80555555555554" y="417.0"/>
      <point x="351.0" y="444.0"/>
      <point x="351" y="481" type="curve" smooth="yes"/>
      <point x="351.0" y="517.0"/>
      <point x="322.80555555555554" y="542.0"/>
      <point x="281" y="542" type="curve" smooth="yes"/>
      <point x="238.1891891891892" y="542.0"/>
      <point x="209.0" y="517.0"/>
      <point x="209" y="481" type="curve" smooth="yes"/>
      <point x="209.0" y="444.0"/>
      <point x="239.16216216216216" y="417.0"/>
    </contour>
    <contour>
      <point x="281" y="309" type="curve" smooth="yes"/>
      <point x="143.1518987341772" y="309.0"/>
      <point x="39.0" y="368.0"/>
      <point x="39" y="490" type="curve" smooth="yes"/>
      <point x="39.0" y="610.0"/>
      <point x="142.41880341880344" y="695.0"/>
      <point x="281" y="695" type="curve" smooth="yes"/>
      <point x="418.5862068965517" y="695.0"/>
      <point x="521.0" y="610.0"/>
      <point x="521" y="490" type="curve" smooth="yes"/>
      <point x="521.0" y="368.0"/>
      <point x="418.8723404255319" y="309.0"/>
    </contour>
  </outline>
</glyph>
<glyph name="A" format="2">
  <advance width="657"/>
  <unicode hex="0041"/>
  <outline>
    <contour>
      <point x="0" y="0" type="line"/>
      <point x="176" y="0" type="line"/>
      <point x="377" y="680" type="line"/>
      <point x="209" y="680" type="line"/>
    </contour>
    <contour>
      <point x="481" y="0" type="line"/>
      <point x="657" y="0" type="line"/>
      <point x="448" y="680" type="line"/>
      <point x="280" y="680" type="line"/>
    </contour>
    <contour>
      <point x="136" y="129" type="line"/>
      <point x="499" y="129" type="line"/>
      <point x="499" y="278" type="line"/>
      <point x="136" y="278" type="line"/>
    </contour>
  </outline>
</glyph>
<glyph name="B" format="2">
  <advance width="596"/>
  <unicode hex="0042"/>
  <outline>
    <contour>
      <point x="65" y="0" type="line"/>
      <point x="238" y="0" type="line"/>
      <point x="238" y="680" type="line"/>
      <point x="65" y="680" type="line"/>
    </contour>
    <contour>
      <point x="371" y="470" type="curve" smooth="yes"/>
      <point x="371.0" y="436"/>
      <point x="348" y="415"/>
      <point x="313" y="415" type="curve" smooth="yes"/>
      <point x="190" y="415" type="line"/>
      <point x="190" y="310" type="line"/>
      <point x="309" y="310" type="line" smooth="yes"/>
      <point x="457.0" y="310.0"/>
      <point x="539.0" y="380"/>
      <point x="539" y="485" type="curve" smooth="yes"/>
      <point x="539.0" y="602"/>
      <point x="446.0" y="680.0"/>
      <point x="308" y="680" type="curve" smooth="yes"/>
      <point x="190" y="680" type="line"/>
      <point x="190" y="527" type="line"/>
      <point x="313" y="527" type="line" smooth="yes"/>
      <point x="348.0" y="527.0"/>
      <point x="371.0" y="504"/>
    </contour>
    <contour>
      <point x="397.0" y="218.0" type="curve" smooth="yes"/>
      <point x="397.0" y="178"/>
      <point x="370.0" y="153.0"/>
      <point x="328.0" y="153.0" type="curve" smooth="yes"/>
      <point x="190.0" y="153.0" type="line"/>
      <point x="190.0" y="0.0" type="line"/>
      <point x="323.0" y="0.0" type="line" smooth="yes"/>
      <point x="468.0" y="0.0"/>
      <point x="566.0" y="79"/>
      <point x="566.0" y="200.0" type="curve" smooth="yes"/>
      <point x="566.0" y="312"/>
      <point x="479.0" y="393.0"/>
      <point x="324.0" y="393.0" type="curve" smooth="yes"/>
      <point x="190.0" y="393.0" type="line"/>
      <point x="190.0" y="281.0" type="line"/>
      <point x="328.0" y="281.0" type="line" smooth="yes"/>
      <point x="370" y="281"/>
      <point x="397.0" y="256"/>
    </contour>
  </outline>
</glyph>
<glyph name="K" format="2">
  <advance width="645"/>
  <unicode hex="004B"/>
  <outline>
    <contour>
      <point x="190" y="353" type="line"/>
      <point x="446" y="0.0" type="line"/>
      <point x="655" y="0.0" type="line"/>
      <point x="355" y="402" type="line"/>
      <point x="334" y="288" type="line"/>
      <point x="643" y="680" type="line"/>
      <point x="445" y="680" type="line"/>
    </contour>
    <contour>
      <point x="65" y="0" type="line"/>
      <point x="240" y="0" type="line"/>
      <point x="240" y="680" type="line"/>
      <point x="65" y="680" type="line"/>
    </contour>
  </outline>
</glyph>
<glyph name="N" format="2">
  <advance width="693"/>
  <unicode hex="004E"/>
  <outline>
    <contour>
      <point x="65" y="0" type="line"/>
      <point x="237" y="0" type="line"/>
      <point x="237" y="680" type="line"/>
      <point x="65" y="680" type="line"/>
    </contour>
    <contour>
      <point x="456" y="0" type="line"/>
      <point x="628" y="0" type="line"/>
      <point x="628" y="680" type="line"/>
      <point x="456" y="680" type="line"/>
    </contour>
    <contour>
      <point x="71" y="680" type="line"/>
      <point x="452" y="0" type="line"/>
      <point x="622" y="0" type="line"/>
      <point x="241" y="680" type="line"/>
    </contour>
  </outline>
</glyph>
<glyph name="P" format="2">
  <advance width="593"/>
  <unicode hex="0050"/>
  <outline>
    <contour>
      <point x="65" y="0" type="line"/>
      <point x="240" y="0" type="line"/>
      <point x="240" y="680" type="line"/>
      <point x="65" y="680" type="line"/>
    </contour>
    <contour>
      <point x="190" y="210" type="line"/>
      <point x="327" y="210" type="line" smooth="yes"/>
      <point x="465" y="210"/>
      <point x="568" y="303"/>
      <point x="568" y="444" type="curve" smooth="yes"/>
      <point x="568" y="585"/>
      <point x="466.0" y="680.0"/>
      <point x="313" y="680" type="curve" smooth="yes"/>
      <point x="190" y="680" type="line"/>
      <point x="190" y="523" type="line"/>
      <point x="315" y="523" type="line" smooth="yes"/>
      <point x="365.0" y="523"/>
      <point x="395.0" y="488.1392405063291"/>
      <point x="395" y="442" type="curve" smooth="yes"/>
      <point x="395.0" y="395.84615384615387"/>
      <point x="366.0" y="362"/>
      <point x="325" y="362" type="curve" smooth="yes"/>
      <point x="190" y="362" type="line"/>
    </contour>
  </outline>
</glyph>
<glyph name="R" format="2">
  <advance width="626"/>
  <unicode hex="0052"/>
  <outline>
    <contour>
      <point x="65" y="0" type="line"/>
      <point x="240" y="0" type="line"/>
      <point x="240" y="680" type="line"/>
      <point x="65" y="680" type="line"/>
    </contour>
    <contour>
      <point x="437" y="0" type="line"/>
      <point x="631" y="0" type="line"/>
      <point x="429" y="340" type="line"/>
      <point x="240" y="356" type="line"/>
    </contour>
    <contour>
      <point x="190" y="228" type="line"/>
      <point x="320" y="228" type="line" smooth="yes"/>
      <point x="457" y="228"/>
      <point x="559" y="314"/>
      <point x="559" y="451" type="curve" smooth="yes"/>
      <point x="559" y="588"/>
      <point x="458" y="680"/>
      <point x="306" y="680" type="curve" smooth="yes"/>
      <point x="190" y="680" type="line"/>
      <point x="190" y="522" type="line"/>
      <point x="308" y="522" type="line" smooth="yes"/>
      <point x="357.0" y="522"/>
      <point x="386.0" y="490.1388888888889"/>
      <point x="386" y="448" type="curve" smooth="yes"/>
      <point x="386.0" y="405.8611111111111"/>
      <point x="358.0" y="374"/>
      <point x="318" y="374" type="curve" smooth="yes"/>
      <point x="190" y="374" type="line"/>
    </contour>
  </outline>
</glyph>
<glyph name="T" format="2">
  <advance width="542"/>
  <unicode hex="0054"/>
  <outline>
    <contour>
      <point x="184" y="0" type="line"/>
      <point x="359" y="0" type="line"/>
      <point x="359" y="680" type="line"/>
      <point x="184" y="680" type="line"/>
    </contour>
    <contour>
      <point x="30" y="521" type="line"/>
      <point x="512" y="521" type="line"/>
      <point x="512" y="680" type="line"/>
      <point x="30" y="680" type="line"/>
    </contour>
  </outline>
</glyph>
<glyph name="X" format="2">
  <advance width="648"/>
  <unicode hex="0058"/>
  <outline>
    <contour>
      <point x="18" y="680" type="line"/>
      <point x="254" y="288" type="line"/>
      <point x="292" y="271" type="line"/>
      <point x="446" y="0" type="line"/>
      <point x="643" y="0" type="line"/>
      <point x="403" y="403" type="line"/>
      <point x="363" y="423" type="line"/>
      <point x="215" y="680" type="line"/>
    </contour>
    <contour>
      <point x="633" y="680" type="line"/>
      <point x="439" y="680" type="line"/>
      <point x="290" y="423" type="line"/>
      <point x="250" y="403" type="line"/>
      <point x="5" y="0" type="line"/>
      <point x="199" y="0" type="line"/>
      <point x="356" y="271" type="line"/>
      <point x="394" y="288" type="line"/>
    </contour>
  </outline>
</glyph>
<glyph name="bracketright" format="2">
  <advance width="420"/>
  <unicode hex="005D"/>
  <outline>
    <contour>
      <point x="180.0" y="-160.0" type="line"/>
      <point x="345.0" y="-160.0" type="line"/>
      <point x="345.0" y="770.0" type="line"/>
      <point x="180.0" y="770.0" type="line"/>
    </contour>
    <contour>
      <point x="345.0" y="-160.0" type="line"/>
      <point x="345.0" y="-15.0" type="line"/>
      <point x="75.0" y="-15.0" type="line"/>
      <point x="75.0" y="-160.0" type="line"/>
    </contour>
    <contour>
      <point x="345.0" y="625.0" type="line"/>
      <point x="345.0" y="770.0" type="line"/>
      <point x="75.0" y="770.0" type="line"/>
      <point x="75.0" y="625.0" type="line"/>
    </contour>
  </outline>
</glyph>
<glyph name="b" format="2">
  <advance width="621"/>
  <unicode hex="0062"/>
  <outline>
    <contour>
      <point x="221" y="0" type="line"/>
      <point x="56" y="0" type="line"/>
      <point x="56" y="730" type="line"/>
      <point x="221" y="730" type="line"/>
      <point x="221" y="361" type="line"/>
      <point x="173" y="261" type="line"/>
      <point x="221" y="131" type="line"/>
    </contour>
    <contour>
      <point x="323" y="132" type="curve" smooth="yes"/>
      <point x="388" y="132"/>
      <point x="429" y="182"/>
      <point x="429" y="259" type="curve" smooth="yes"/>
      <point x="429" y="336"/>
      <point x="388" y="385"/>
      <point x="323" y="385" type="curve" smooth="yes"/>
      <point x="259" y="385"/>
      <point x="217" y="335"/>
      <point x="217" y="259" type="curve" smooth="yes"/>
      <point x="217" y="183"/>
      <point x="259" y="132"/>
    </contour>
    <contour>
      <point x="153" y="347" type="line"/>
      <point x="153" y="450"/>
      <point x="237" y="531"/>
      <point x="346" y="531" type="curve" smooth="yes"/>
      <point x="480" y="531"/>
      <point x="594" y="421"/>
      <point x="594" y="259" type="curve" smooth="yes"/>
      <point x="594" y="99"/>
      <point x="480" y="-14"/>
      <point x="345" y="-14" type="curve" smooth="yes"/>
      <point x="237" y="-14"/>
      <point x="153" y="70"/>
      <point x="153" y="173" type="curve"/>
    </contour>
  </outline>
</glyph>
<glyph name="e" format="2">
  <advance width="563"/>
  <unicode hex="0065"/>
  <outline>
    <contour>
      <point x="389.0" y="256.0" type="line"/>
      <point x="389.0" y="346.0"/>
      <point x="347" y="385.0"/>
      <point x="290.0" y="385.0" type="curve" smooth="yes"/>
      <point x="234" y="385.0"/>
      <point x="188" y="346"/>
      <point x="188" y="256" type="curve" smooth="yes"/>
      <point x="188" y="136"/>
      <point x="331" y="102"/>
      <point x="500" y="166" type="curve"/>
      <point x="500" y="24" type="line"/>
      <point x="270" y="-74"/>
      <point x="27.0" y="21"/>
      <point x="27" y="259" type="curve" smooth="yes"/>
      <point x="27" y="415"/>
      <point x="139" y="533.0"/>
      <point x="294" y="533" type="curve" smooth="yes"/>
      <point x="466" y="533.0"/>
      <point x="564" y="383"/>
      <point x="529" y="198" type="curve"/>
      <point x="129" y="198" type="line"/>
      <point x="129" y="320" type="line"/>
      <point x="450" y="320" type="line"/>
    </contour>
  </outline>
</glyph>
<glyph name="f" format="2">
  <advance width="423"/>
  <unicode hex="0066"/>
  <outline>
    <contour>
      <point x="28" y="369" type="line"/>
      <point x="398" y="369" type="line"/>
      <point x="398" y="517" type="line"/>
      <point x="28" y="517" type="line"/>
    </contour>
    <contour>
      <point x="275" y="533" type="line" smooth="yes"/>
      <point x="275" y="586"/>
      <point x="338.0" y="604.0"/>
      <point x="418.0" y="577.0" type="curve"/>
      <point x="418.0" y="730.0" type="line"/>
      <point x="275.0" y="777.0"/>
      <point x="109" y="712.0"/>
      <point x="109" y="534" type="curve" smooth="yes"/>
      <point x="109" y="0" type="line"/>
      <point x="274" y="0" type="line"/>
    </contour>
  </outline>
</glyph>
<glyph name="g" format="2">
  <advance width="592"/>
  <unicode hex="0067"/>
  <outline>
    <contour>
      <point x="420" y="259" type="line"/>
      <point x="372" y="358" type="line"/>
      <point x="372" y="517" type="line"/>
      <point x="537" y="517" type="line"/>
      <point x="537" y="84" type="line" smooth="yes"/>
      <point x="537.0" y="-144.0"/>
      <point x="323" y="-211"/>
      <point x="94" y="-154" type="curve"/>
      <point x="94" y="3" type="line"/>
      <point x="244" y="-50"/>
      <point x="370" y="-19"/>
      <point x="370" y="72" type="curve"/>
      <point x="370" y="153" type="line"/>
    </contour>
    <contour>
      <point x="281" y="189" type="curve" smooth="yes"/>
      <point x="334" y="189"/>
      <point x="370" y="229"/>
      <point x="370" y="287" type="curve" smooth="yes"/>
      <point x="370" y="346"/>
      <point x="334" y="387"/>
      <point x="281" y="387" type="curve" smooth="yes"/>
      <point x="227" y="387"/>
      <point x="192" y="347"/>
      <point x="192" y="287" type="curve" smooth="yes"/>
      <point x="192" y="228"/>
      <point x="227" y="189"/>
    </contour>
    <contour>
      <point x="436" y="368" type="curve"/>
      <point x="432" y="209" type="line"/>
      <point x="432" y="121"/>
      <point x="351" y="49"/>
      <point x="243" y="49" type="curve" smooth="yes"/>
      <point x="119" y="49"/>
      <point x="27" y="143"/>
      <point x="27" y="283" type="curve" smooth="yes"/>
      <point x="27" y="428"/>
      <point x="133" y="528"/>
      <point x="252" y="528" type="curve" smooth="yes"/>
      <point x="358" y="528"/>
      <point x="436" y="458"/>
    </contour>
  </outline>
</glyph>
<glyph name="h" format="2">
  <advance width="595"/>
  <unicode hex="0068"/>
  <outline>
    <contour>
      <point x="56" y="0" type="line"/>
      <point x="221" y="0" type="line"/>
      <point x="221" y="730" type="line"/>
      <point x="56" y="730" type="line"/>
    </contour>
    <contour>
      <point x="142" y="344" type="curve"/>
      <point x="221" y="292" type="line"/>
      <point x="221" y="349"/>
      <point x="252" y="381"/>
      <point x="305" y="381" type="curve" smooth="yes"/>
      <point x="358" y="381"/>
      <point x="382" y="345"/>
      <point x="382" y="292" type="curve" smooth="yes"/>
      <point x="382" y="0" type="line"/>
      <point x="547" y="0" type="line"/>
      <point x="547" y="314" type="line" smooth="yes"/>
      <point x="547" y="449"/>
      <point x="468" y="531"/>
      <point x="354" y="531" type="curve" smooth="yes"/>
      <point x="231" y="531"/>
      <point x="142" y="447"/>
    </contour>
  </outline>
</glyph>
<glyph name="i" format="2">
  <advance width="281"/>
  <unicode hex="0069"/>
  <outline>
    <contour>
      <point x="58" y="0" type="line"/>
      <point x="223" y="0" type="line"/>
      <point x="223" y="517" type="line"/>
      <point x="58" y="517" type="line"/>
    </contour>
    <contour>
      <point x="141" y="576" type="curve" smooth="yes"/>
      <point x="197" y="576"/>
      <point x="244" y="622"/>
      <point x="244" y="678" type="curve" smooth="yes"/>
      <point x="244" y="733"/>
      <point x="197" y="779"/>
      <point x="141" y="779" type="curve" smooth="yes"/>
      <point x="83" y="779"/>
      <point x="37" y="733"/>
      <point x="37" y="678" type="curve" smooth="yes"/>
      <point x="37" y="622"/>
      <point x="83" y="576"/>
    </contour>
  </outline>
</glyph>
<glyph name="k" format="2">
  <advance width="567"/>
  <unicode hex="006B"/>
  <outline>
    <contour>
      <point x="56" y="0" type="line"/>
      <point x="221" y="0" type="line"/>
      <point x="221" y="730" type="line"/>
      <point x="56" y="730" type="line"/>
    </contour>
    <contour>
      <point x="178" y="277" type="line"/>
      <point x="371" y="0" type="line"/>
      <point x="567" y="0" type="line"/>
      <point x="340" y="316" type="line"/>
      <point x="323" y="225" type="line"/>
      <point x="558" y="517" type="line"/>
      <point x="365" y="517" type="line"/>
    </contour>
  </outline>
</glyph>
<glyph name="l" format="2">
  <advance width="277"/>
  <unicode hex="006C"/>
  <outline>
    <contour>
      <point x="56" y="0" type="line"/>
      <point x="221" y="0" type="line"/>
      <point x="221" y="730" type="line"/>
      <point x="56" y="730" type="line"/>
    </contour>
  </outline>
</glyph>
<glyph name="w" format="2">
  <advance width="774"/>
  <unicode hex="0077"/>
  <outline>
    <contour>
      <point x="160" y="0" type="line"/>
      <point x="316" y="0" type="line"/>
      <point x="170" y="517" type="line"/>
      <point x="3" y="517" type="line"/>
    </contour>
    <contour>
      <point x="322" y="0" type="line"/>
      <point x="458" y="517" type="line"/>
      <point x="318" y="517" type="line"/>
      <point x="194" y="0" type="line"/>
    </contour>
    <contour>
      <point x="614" y="0" type="line"/>
      <point x="771" y="517" type="line"/>
      <point x="607" y="517" type="line"/>
      <point x="463" y="0" type="line"/>
    </contour>
    <contour>
      <point x="452" y="0" type="line"/>
      <point x="583" y="0" type="line"/>
      <point x="459" y="517" type="line"/>
      <point x="318" y="517" type="line"/>
    </contour>
  </outline>
</glyph>
<glyph name="y" format="2">
  <advance width="540"/>
  <unicode hex="0079"/>
  <outline>
    <contour>
      <point x="103" y="-160" type="line"/>
      <point x="276" y="-160" type="line"/>
      <point x="545" y="517" type="line"/>
      <point x="371" y="517" type="line"/>
      <point x="229" y="140" type="line"/>
      <point x="208" y="108" type="line"/>
    </contour>
    <contour>
      <point x="348" y="81" type="line"/>
      <point x="171" y="517" type="line"/>
      <point x="-5" y="517" type="line"/>
      <point x="207" y="0" type="line"/>
    </contour>
  </outline>
</glyph>
<glyph name="braceright" format="2">
  <advance width="431"/>
  <unicode hex="007D"/>
  <outline>
    <contour>
      <point x="140" y="400" type="curve" smooth="yes"/>
      <point x="140" y="476"/>
      <point x="199" y="546"/>
      <point x="199" y="597" type="curve" smooth="yes"/>
      <point x="199" y="642"/>
      <point x="138" y="655"/>
      <point x="40" y="624" type="curve"/>
      <point x="40" y="770" type="line"/>
      <point x="199" y="809"/>
      <point x="361" y="768"/>
      <point x="361" y="617" type="curve" smooth="yes"/>
      <point x="361" y="528"/>
      <point x="304" y="446"/>
      <point x="304" y="400" type="curve" smooth="yes"/>
      <point x="304" y="381"/>
      <point x="315" y="372"/>
      <point x="336" y="372" type="curve"/>
      <point x="311" y="292" type="line"/>
      <point x="185" y="280"/>
      <point x="140" y="336"/>
    </contour>
    <contour>
      <point x="391" y="237" type="line"/>
      <point x="215" y="237" type="line"/>
      <point x="215" y="372" type="line"/>
      <point x="391" y="372" type="line"/>
    </contour>
    <contour>
      <point x="140" y="209" type="curve" smooth="yes"/>
      <point x="140" y="273"/>
      <point x="185" y="329"/>
      <point x="311" y="317" type="curve"/>
      <point x="336" y="237" type="line"/>
      <point x="315" y="237"/>
      <point x="304" y="228"/>
      <point x="304" y="209" type="curve" smooth="yes"/>
      <point x="304" y="163"/>
      <point x="361" y="81"/>
      <point x="361" y="-8" type="curve" smooth="yes"/>
      <point x="361" y="-159"/>
      <point x="199" y="-200"/>
      <point x="40" y="-161" type="curve"/>
      <point x="40" y="-15" type="line"/>
      <point x="138" y="-46"/>
      <point x="199" y="-33"/>
      <point x="199" y="12" type="curve" smooth="yes"/>
      <point x="199" y="63"/>
      <point x="140" y="133"/>
    </contour>
  </outline>
</glyph>
<glyph name="quoteleft" format="2">
  <advance width="297"/>
  <unicode hex="2018"/>
  <outline>
    <contour>
      <point x="255" y="680" type="line"/>
      <point x="211" y="584"/>
      <point x="208" y="488"/>
      <point x="236" y="398" type="curve"/>
      <point x="67" y="398" type="line"/>
      <point x="44" y="488"/>
      <point x="52" y="584"/>
      <point x="101" y="680" type="curve"/>
    </contour>
  </outline>
</glyph>
<glyph name="quotedblleft" format="2">
  <advance width="518"/>
  <unicode hex="201C"/>
  <outline>
    <contour>
      <point x="232" y="398" type="line"/>
      <point x="207" y="488"/>
      <point x="212" y="584"/>
      <point x="259" y="680" type="curve"/>
      <point x="101" y="680" type="line"/>
      <point x="52" y="584"/>
      <point x="44" y="488"/>
      <point x="67" y="398" type="curve"/>
    </contour>
    <contour>
      <point x="292" y="398" type="line"/>
      <point x="267" y="488"/>
      <point x="272" y="584"/>
      <point x="319" y="680" type="curve"/>
      <point x="476" y="680" type="line"/>
      <point x="432" y="584"/>
      <point x="429" y="488"/>
      <point x="457" y="398" type="curve"/>
    </contour>
  </outline>
</glyph>
<glyph name="quotedblright" format="2">
  <advance width="518"/>
  <unicode hex="201D"/>
  <outline>
    <contour>
      <point x="286" y="680" type="line"/>
      <point x="311" y="590"/>
      <point x="306" y="494"/>
      <point x="259" y="398" type="curve"/>
      <point x="417" y="398" type="line"/>
      <point x="466" y="494"/>
      <point x="474" y="590"/>
      <point x="451" y="680" type="curve"/>
    </contour>
    <contour>
      <point x="226" y="680" type="line"/>
      <point x="251" y="590"/>
      <point x="246" y="494"/>
      <point x="199" y="398" type="curve"/>
      <point x="42" y="398" type="line"/>
      <point x="86" y="494"/>
      <point x="89" y="590"/>
      <point x="61" y="680" type="curve"/>
    </contour>
  </outline>
</glyph>
<glyph name="guilsinglright" format="2">
  <advance width="387"/>
  <unicode hex="203A"/>
  <outline>
    <contour>
      <point x="347" y="354" type="line"/>
      <point x="60" y="540" type="line"/>
      <point x="60" y="354" type="line"/>
      <point x="347" y="177" type="line"/>
    </contour>
    <contour>
      <point x="347" y="167" type="line"/>
      <point x="347" y="339" type="line"/>
      <point x="60" y="164" type="line"/>
      <point x="60" y="-19" type="line"/>
    </contour>
  </outline>
</glyph>
<glyph name="comma.alt" format="2">
  <advance width="297"/>
  <outline>
    <contour>
      <point x="28.0" y="-101.0" type="line"/>
      <point x="77.0" y="181.0" type="line"/>
      <point x="246" y="181.0" type="line"/>
      <point x="182.0" y="-101.0" type="line"/>
    </contour>
  </outline>
</glyph>
<glyph name="four.sharp" format="2">
  <advance width="592"/>
  <outline>
    <contour>
      <point x="317" y="0" type="line"/>
      <point x="492" y="0" type="line"/>
      <point x="492" y="680" type="line"/>
      <point x="317" y="680" type="line"/>
    </contour>
    <contour>
      <point x="66" y="138" type="line"/>
      <point x="587" y="138" type="line"/>
      <point x="587" y="287" type="line"/>
      <point x="126" y="287" type="line"/>
    </contour>
    <contour>
      <point x="-10" y="138" type="line"/>
      <point x="161" y="138" type="line"/>
      <point x="382" y="680" type="line"/>
      <point x="236" y="680" type="line"/>
    </contour>
  </outline>
</glyph>
<glyph name="quotedblright.alt" format="2">
  <advance width="518"/>
  <outline>
    <contour>
      <point x="259" y="398" type="line"/>
      <point x="308" y="680" type="line"/>
      <point x="477" y="680" type="line"/>
      <point x="413" y="398" type="line"/>
    </contour>
    <contour>
      <point x="38" y="398" type="line"/>
      <point x="87" y="680" type="line"/>
      <point x="256" y="680" type="line"/>
      <point x="192" y="398" type="line"/>
    </contour>
  </outline>
</glyph>
<glyph name="quoteleft.alt" format="2">
  <advance width="297"/>
  <outline>
    <contour>
      <point x="255" y="680" type="line"/>
      <point x="211" y="584"/>
      <point x="208" y="488"/>
      <point x="236" y="398" type="curve"/>
      <point x="67" y="398" type="line"/>
      <point x="44" y="488"/>
      <point x="52" y="584"/>
      <point x="101" y="680" type="curve"/>
    </contour>
  </outline>
</glyph>
<glyph name="quoteright.alt" format="2">
  <advance width="297"/>
  <outline>
    <contour>
      <point x="42.0" y="398.0" type="line"/>
      <point x="86.0" y="494.0"/>
      <point x="89.0" y="590.0"/>
      <point x="61.0" y="680.0" type="curve"/>
      <point x="230.0" y="680.0" type="line"/>
      <point x="253.0" y="590.0"/>
      <point x="245.0" y="494.0"/>
      <point x="196.0" y="398.0" type="curve"/>
    </contour>
  </outline>
</glyph>
<glyph name="quoteright" format="2">
  <advance width="297"/>
  <outline>
    <contour>
      <point x="38.0" y="398.0" type="line"/>
      <point x="87.0" y="680.0" type="line"/>
      <point x="256.0" y="680.0" type="line"/>
      <point x="182.0" y="398.0" type="line"/>
    </contour>
  </outline>
</glyph>
<glyph name="semicolon" format="2">
  <advance width="291"/>
  <outline>
    <contour>
      <point x="147" y="349" type="curve" smooth="yes"/>
      <point x="204" y="349"/>
      <point x="252" y="396"/>
      <point x="252" y="453" type="curve" smooth="yes"/>
      <point x="252" y="509"/>
      <point x="204" y="556"/>
      <point x="147" y="556" type="curve" smooth="yes"/>
      <point x="88" y="556"/>
      <point x="41" y="509"/>
      <point x="41" y="453" type="curve" smooth="yes"/>
      <point x="41" y="396"/>
      <point x="88" y="349"/>
    </contour>
    <contour>
      <point x="15.0" y="-101.0" type="line"/>
      <point x="64.0" y="181.0" type="line"/>
      <point x="233" y="181.0" type="line"/>
      <point x="159.0" y="-101.0" type="line"/>
    </contour>
  </outline>
</glyph>
<glyph name="zero.alt" format="2">
  <advance width="766"/>
  <outline>
    <contour>
      <point x="383" y="149" type="curve" smooth="yes"/>
      <point x="491.8235294117647" y="149.0"/>
      <point x="568.0" y="226.0"/>
      <point x="568" y="341" type="curve" smooth="yes"/>
      <point x="568.0" y="455.0"/>
      <point x="491.8235294117647" y="531.0"/>
      <point x="383" y="531" type="curve" smooth="yes"/>
      <point x="274.1764705882353" y="531.0"/>
      <point x="198.0" y="456.0"/>
      <point x="198" y="341" type="curve" smooth="yes"/>
      <point x="198.0" y="226.0"/>
      <point x="274.1764705882353" y="149.0"/>
    </contour>
    <contour>
      <point x="383" y="-16" type="curve" smooth="yes"/>
      <point x="177.38483965014578" y="-16.0"/>
      <point x="25.0" y="137.0"/>
      <point x="25" y="341" type="curve" smooth="yes"/>
      <point x="25.0" y="544.0"/>
      <point x="177.38483965014578" y="696.0"/>
      <point x="383" y="696" type="curve" smooth="yes"/>
      <point x="587.5714285714286" y="696.0"/>
      <point x="741.0" y="544.0"/>
      <point x="741" y="341" type="curve" smooth="yes"/>
      <point x="741.0" y="137.0"/>
      <point x="587.5714285714286" y="-16.0"/>
    </contour>
  </outline>
</glyph>
